<?xml version="1.0" encoding="utf-8"?><svg viewBox="0 0 25 24" xmlns="http://www.w3.org/2000/svg" xmlns:xlink="http://www.w3.org/1999/xlink"><style>:root>svg{display:none}:root>svg:target{display:block}</style><svg fill="none" viewBox="0 0 6 10" id="about__slidernext" xmlns="http://www.w3.org/2000/svg"><path opacity=".5" d="M1 1l4 4-4 4" stroke="#828282" stroke-width=".75"/></svg><svg fill="none" viewBox="0 0 6 10" id="about__sliderprev" xmlns="http://www.w3.org/2000/svg"><path opacity=".5" d="M5 9L1 5l4-4" stroke="#828282" stroke-width=".75"/></svg><svg clip-rule="evenodd" fill-rule="evenodd" stroke-linejoin="round" stroke-miterlimit="2" viewBox="0 0 24 24" id="blog__arrow-left" xmlns="http://www.w3.org/2000/svg"><path d="M9.474 5.209L3.22 11.468c-.147.146-.22.338-.22.53s.073.384.22.53l6.252 6.257a.742.742 0 00.527.217.753.753 0 00.534-1.278l-4.976-4.976h14.692a.75.75 0 000-1.5H5.557l4.978-4.979a.745.745 0 00-.006-1.054.749.749 0 00-1.055-.006z" fill-rule="nonzero"/></svg><svg fill-rule="evenodd" clip-rule="evenodd" viewBox="0 0 24 24" id="blog__arrow-right" xmlns="http://www.w3.org/2000/svg"><path d="M21.883 12l-7.527 6.235L15 19l9-7.521L15 4l-.645.764L21.884 11H0v1h21.883z"/></svg><svg fill="none" viewBox="0 0 25 24" id="facebook" xmlns="http://www.w3.org/2000/svg"><rect width="24.774" height="24" rx="12" fill="#3F5C95"/><path d="M14.71 7.806v1.347h-.839c-.665 0-.79.303-.79.734v.971h1.58l-.211 1.513H13.08v3.887h-1.648V12.37h-1.368v-1.513h1.368V9.74c0-1.292.838-1.998 2.053-1.998.578 0 1.08.036 1.224.064z" fill="#fff"/></svg><svg fill="none" viewBox="0 0 25 24" id="icon4" xmlns="http://www.w3.org/2000/svg"><circle opacity=".2" cx="12.774" cy="12" r="11.5" stroke="#080808"/><g clip-path="url(#fclip0_1_1201)" stroke="#080808" stroke-linecap="round" stroke-linejoin="round"><path d="M12.385 9.29l.774-.774a2.19 2.19 0 013.097 3.097l-.774.774m-1.549 1.548l-1.548 1.549a2.19 2.19 0 11-3.097-3.097l1.549-1.548M10.834 13.935l3.871-3.871"/></g><defs><clipPath id="fclip0_1_1201"><path fill="#fff" transform="translate(7.742 6.968)" d="M0 0h10.065v10.065H0z"/></clipPath></defs></svg><svg fill="none" viewBox="0 0 25 24" id="linkedin" xmlns="http://www.w3.org/2000/svg"><circle cx="12.774" cy="12" r="12" fill="#0077B7"/><g clip-path="url(#gclip0_1_1195)" fill="#fff"><path d="M18.578 17.035h.003v-3.976c0-1.944-.42-3.442-2.692-3.442-1.093 0-1.827.6-2.126 1.168h-.032v-.987h-2.155v7.236h2.244v-3.583c0-.943.179-1.855 1.347-1.855 1.151 0 1.169 1.076 1.169 1.916v3.523h2.242zM7.92 9.798h2.248v7.237H7.921V9.798zM9.044 6.193c-.718 0-1.301.583-1.301 1.302 0 .718.583 1.314 1.301 1.314.719 0 1.302-.596 1.302-1.314 0-.719-.584-1.302-1.302-1.302z"/></g><defs><clipPath id="gclip0_1_1195"><path fill="#fff" transform="translate(7.743 6.193)" d="M0 0h10.839v10.839H0z"/></clipPath></defs></svg><svg fill="none" viewBox="0 0 8 10" id="location" xmlns="http://www.w3.org/2000/svg"><path d="M4 0A3.626 3.626 0 00.38 3.622c0 2.478 3.24 6.116 3.379 6.27.13.144.356.144.485 0 .138-.154 3.38-3.792 3.38-6.27A3.626 3.626 0 004 0zm0 5.444a1.824 1.824 0 01-1.822-1.822c0-1.005.818-1.823 1.823-1.823 1.004 0 1.822.818 1.822 1.823A1.824 1.824 0 014 5.444z" fill="#fff"/></svg><svg fill="none" viewBox="0 0 6 10" id="main__slidernext" xmlns="http://www.w3.org/2000/svg"><path d="M1 1l4 4-4 4" stroke="#fff" stroke-width=".75"/></svg><svg fill="none" viewBox="0 0 6 10" id="main__sliderprev" xmlns="http://www.w3.org/2000/svg"><path d="M5 9L1 5l4-4" stroke="#fff" stroke-width=".75"/></svg><svg fill="none" viewBox="0 0 6 6" id="ol" xmlns="http://www.w3.org/2000/svg"><circle cx="3" cy="3" r="2.5" stroke="#515151"/></svg><svg fill="none" viewBox="0 0 12 16" id="oneproj-1" xmlns="http://www.w3.org/2000/svg"><path d="M6.212.003C2.802-.107 0 2.495 0 5.72c0 3.66 3.687 6.315 5.753 10.134a.29.29 0 00.503 0c1.87-3.436 5.064-5.74 5.656-9.051.613-3.426-2.054-6.683-5.7-6.8zm-.208 8.713c-1.737 0-3.145-1.342-3.145-2.996 0-1.655 1.408-2.996 3.145-2.996S9.15 4.065 9.15 5.72c0 1.654-1.408 2.996-3.145 2.996z" fill="#fff"/></svg><svg fill="none" viewBox="0 0 16 16" id="oneproj-2" xmlns="http://www.w3.org/2000/svg"><g opacity=".5" fill="#fff"><path d="M11.983 3.377c.622 0 1.126-.494 1.126-1.108V1.11C13.109.496 12.605 0 11.983 0c-.623 0-1.126.494-1.126 1.11v1.16c.001.613.504 1.107 1.126 1.107z"/><path d="M15.983 1.92h-2.267v.564c0 .931-.767 1.69-1.714 1.69a1.702 1.702 0 01-1.713-1.69V1.92H5.716v.564c0 .931-.77 1.69-1.715 1.69-.946 0-1.714-.758-1.714-1.69V1.92L0 1.892V16h14.858L16 15.997 15.983 1.92zm-1.126 12.956H1.144V5.863h13.714v9.013h-.001z"/><path d="M3.984 3.377c.622 0 1.127-.494 1.127-1.108V1.11C5.11.495 4.606 0 3.984 0S2.86.494 2.86 1.11v1.16c0 .613.503 1.107 1.125 1.107zM7.52 7.073H5.719V8.64h1.8V7.073zM10.434 7.073H8.63V8.64h1.803V7.073zM13.131 7.073h-1.8V8.64h1.8V7.073zM7.52 9.675H5.719v1.566h1.8V9.675zM10.434 9.675H8.63v1.566h1.803V9.675zM13.131 9.675h-1.8v1.566h1.8V9.675zM7.52 12.329H5.719v1.566h1.8v-1.566zM4.66 9.675h-1.8v1.566h1.8V9.675zM4.66 12.329h-1.8v1.566h1.8v-1.566zM10.434 12.329H8.63v1.566h1.803v-1.566zM13.131 12.329h-1.8v1.566h1.8v-1.566z"/></g></svg><svg fill="none" viewBox="0 0 16 16" id="oneproj-3" xmlns="http://www.w3.org/2000/svg"><g opacity=".5" fill="#fff"><path d="M1.084 9.275l7.363-7.227 1.228 1.205-7.363 7.226-1.228-1.204zM0 11.546l1.806-.76L.774 9.772 0 11.546zM11.515 1.446a.84.84 0 000-1.205.901.901 0 00-1.227 0l-.614.602 1.227 1.205.614-.602zM8.854 1.647l.41-.402L10.49 2.45l-.41.401-1.227-1.204zM14.553 4.076H16V1.07L.79 16H16v-1.136h-1.447a.287.287 0 01-.289-.284c0-.156.13-.284.29-.284h1.445v-1.135h-.867a.287.287 0 01-.29-.284c0-.157.13-.284.29-.284h.867v-1.136h-1.446a.287.287 0 01-.289-.284c0-.156.13-.283.29-.283h1.445V9.754h-.867a.287.287 0 01-.29-.284c0-.157.13-.284.29-.284h.867V8.05h-1.446a.287.287 0 01-.289-.283c0-.157.13-.284.29-.284h1.445V6.347h-.867a.287.287 0 01-.29-.284c0-.157.13-.284.29-.284h.867V4.644h-1.446a.287.287 0 01-.289-.284c0-.157.13-.284.29-.284zm-.867 9.369c0 .157-.13.284-.29.284H7.074a.29.29 0 01-.267-.176.28.28 0 01.063-.309l6.322-6.205a.293.293 0 01.315-.062.284.284 0 01.179.262v6.206z"/></g></svg><svg fill="none" viewBox="0 0 25 24" id="oneproj-fb" xmlns="http://www.w3.org/2000/svg"><path d="M14.71 7.806v1.347h-.839c-.665 0-.79.303-.79.734v.971h1.58l-.212 1.513h-1.368v3.887h-1.648V12.37h-1.368v-1.513h1.368V9.74c0-1.292.838-1.998 2.053-1.998.578 0 1.08.036 1.224.064z" fill="#fff"/><rect x=".5" y=".5" width="23.774" height="23" rx="11.5" stroke="#fff" stroke-opacity=".32"/></svg><svg fill="none" viewBox="0 0 25 24" id="oneproj-in" xmlns="http://www.w3.org/2000/svg"><circle opacity=".32" cx="12.774" cy="12" r="11.5" stroke="#fff"/><g clip-path="url(#pclip0_1_157)" fill="#fff"><path d="M18.578 17.035h.002v-3.976c0-1.944-.418-3.442-2.692-3.442-1.093 0-1.826.6-2.125 1.168h-.032v-.987h-2.156v7.236h2.245v-3.583c0-.943.179-1.855 1.347-1.855 1.151 0 1.168 1.076 1.168 1.916v3.523h2.243zM7.92 9.798h2.248v7.237H7.921V9.798zM9.044 6.193c-.719 0-1.302.583-1.302 1.302 0 .718.583 1.314 1.302 1.314.718 0 1.301-.596 1.301-1.314 0-.719-.583-1.302-1.301-1.302z"/></g><defs><clipPath id="pclip0_1_157"><path fill="#fff" transform="translate(7.742 6.193)" d="M0 0h10.839v10.839H0z"/></clipPath></defs></svg><svg fill="none" viewBox="0 0 25 24" id="oneproj-sh" xmlns="http://www.w3.org/2000/svg"><circle opacity=".32" cx="12.774" cy="12" r="11.5" stroke="#fff"/><g clip-path="url(#qclip0_1_163)" stroke="#fff" stroke-linecap="round" stroke-linejoin="round"><path d="M12.385 9.29l.774-.774a2.19 2.19 0 013.097 3.097l-.774.774m-1.549 1.548l-1.548 1.549a2.19 2.19 0 11-3.097-3.097l1.549-1.548M10.834 13.935l3.871-3.871"/></g><defs><clipPath id="qclip0_1_163"><path fill="#fff" transform="translate(7.742 6.968)" d="M0 0h10.065v10.065H0z"/></clipPath></defs></svg><svg fill="none" viewBox="0 0 25 24" id="oneproj-tw" xmlns="http://www.w3.org/2000/svg"><path fill-rule="evenodd" clip-rule="evenodd" d="M7.742 15.292c.914.61 1.999.966 3.165.966 3.799 0 5.875-3.277 5.875-6.118 0-.093-.002-.185-.006-.277a4.29 4.29 0 001.03-1.113c-.37.171-.768.286-1.185.337.426-.264.753-.687.908-1.188a4.05 4.05 0 01-1.312.52 2.026 2.026 0 00-1.507-.677c-1.14 0-2.065.961-2.065 2.148 0 .17.019.333.054.49-1.716-.089-3.239-.945-4.256-2.245a2.21 2.21 0 00-.28 1.08c0 .746.364 1.405.919 1.79a1.981 1.981 0 01-.936-.269v.027c0 1.041.713 1.911 1.656 2.109a1.97 1.97 0 01-.932.036c.262.855 1.025 1.477 1.929 1.493a4.034 4.034 0 01-3.057.89z" fill="#fff"/><rect x="1.274" y=".5" width="23" height="23" rx="11.5" stroke="#fff" stroke-opacity=".32"/></svg><svg fill="none" viewBox="0 0 9 6" id="select-arrow" xmlns="http://www.w3.org/2000/svg"><path d="M8 1L4.5 4.5 1 1" stroke="#fff" stroke-width="1.4"/></svg><svg fill="none" viewBox="0 0 25 24" id="twitter" xmlns="http://www.w3.org/2000/svg"><rect x=".774" width="24" height="24" rx="12" fill="#38A7DE"/><path fill-rule="evenodd" clip-rule="evenodd" d="M7.742 15.292c.914.61 1.999.966 3.165.966 3.799 0 5.875-3.277 5.875-6.118 0-.093-.002-.185-.006-.277a4.29 4.29 0 001.03-1.113c-.37.171-.768.286-1.185.337.426-.264.753-.687.908-1.188a4.05 4.05 0 01-1.312.52 2.026 2.026 0 00-1.507-.677c-1.14 0-2.065.961-2.065 2.148 0 .17.019.333.054.49-1.716-.089-3.239-.945-4.256-2.245a2.21 2.21 0 00-.28 1.08c0 .746.364 1.405.919 1.79a1.981 1.981 0 01-.936-.269v.027c0 1.041.713 1.911 1.656 2.109a1.97 1.97 0 01-.932.036c.262.855 1.025 1.477 1.929 1.493a4.034 4.034 0 01-3.057.89z" fill="#fff"/></svg></svg>